<svg width="50" height="51" viewBox="0 0 50 51" fill="none" xmlns="http://www.w3.org/2000/svg">
<path d="M16.6667 40.5433C17.7717 40.5433 18.8315 40.1043 19.6129 39.3229C20.3943 38.5415 20.8333 37.4817 20.8333 36.3766C20.8333 35.2716 20.3943 34.2118 19.6129 33.4304C18.8315 32.6489 17.7717 32.21 16.6667 32.21C15.5616 32.21 14.5018 32.6489 13.7204 33.4304C12.939 34.2118 12.5 35.2716 12.5 36.3766C12.5 37.4817 12.939 38.5415 13.7204 39.3229C14.5018 40.1043 15.5616 40.5433 16.6667 40.5433ZM37.5 40.5433C38.6051 40.5433 39.6649 40.1043 40.4463 39.3229C41.2277 38.5415 41.6667 37.4817 41.6667 36.3766C41.6667 35.2716 41.2277 34.2118 40.4463 33.4304C39.6649 32.6489 38.6051 32.21 37.5 32.21C36.3949 32.21 35.3351 32.6489 34.5537 33.4304C33.7723 34.2118 33.3333 35.2716 33.3333 36.3766C33.3333 37.4817 33.7723 38.5415 34.5537 39.3229C35.3351 40.1043 36.3949 40.5433 37.5 40.5433Z" stroke="#7D7D7D" stroke-width="2.5" stroke-miterlimit="1.5" stroke-linecap="round" stroke-linejoin="round"/>
<path d="M20.9374 36.3766H31.2499V14.71C31.2499 14.3784 31.1182 14.0605 30.8838 13.8261C30.6494 13.5917 30.3314 13.46 29.9999 13.46H2.08325M11.7708 36.3766H7.49992C7.33577 36.3766 7.17322 36.3443 7.02156 36.2815C6.86991 36.2187 6.73211 36.1266 6.61604 36.0105C6.49996 35.8944 6.40789 35.7566 6.34507 35.605C6.28225 35.4533 6.24992 35.2908 6.24992 35.1266V24.9183" stroke="#7D7D7D" stroke-width="2.5" stroke-linecap="round"/>
<path d="M4.1665 19.71H12.4998" stroke="#7D7D7D" stroke-width="2.5" stroke-linecap="round" stroke-linejoin="round"/>
<path d="M31.25 19.71H42.9375C43.1791 19.71 43.4155 19.7801 43.6182 19.9117C43.8208 20.0434 43.9809 20.2309 44.0792 20.4516L47.8083 28.8433C47.8794 29.0026 47.9163 29.1751 47.9167 29.3495V35.1266C47.9167 35.2908 47.8843 35.4533 47.8215 35.605C47.7587 35.7566 47.6666 35.8944 47.5506 36.0105C47.4345 36.1266 47.2967 36.2187 47.145 36.2815C46.9934 36.3443 46.8308 36.3766 46.6667 36.3766H42.7083M31.25 36.3766H33.3333" stroke="#7D7D7D" stroke-width="2.5" stroke-linecap="round"/>
</svg>
