<svg width="23" height="25" viewBox="0 0 23 25" fill="none" xmlns="http://www.w3.org/2000/svg">
<g clip-path="url(#clip0_121_53)">
<path fill-rule="evenodd" clip-rule="evenodd" d="M12.0704 22.4099C9.09822 21.6956 6.23609 21.7423 3.22144 21.6567C2.63269 21.6401 2.14322 22.092 2.12549 22.6657C2.10776 23.2396 2.57238 23.7186 3.16113 23.7356C6.01973 23.8167 8.73999 23.7512 11.5632 24.4291C12.1342 24.5664 12.7123 24.225 12.8506 23.6677C12.9925 23.1107 12.6414 22.5468 12.0704 22.4099Z" fill="white"/>
<path fill-rule="evenodd" clip-rule="evenodd" d="M17.8309 16.3415C13.2983 11.4955 7.46761 6.92941 1.58016 3.73797C1.0659 3.45966 0.416831 3.64094 0.133099 4.14281C-0.150634 4.64467 0.0338085 5.27824 0.548072 5.55655C6.24045 8.64262 11.8797 13.0586 16.2598 17.7446C16.657 18.1681 17.3309 18.1975 17.7636 17.8104C18.1963 17.4233 18.2282 16.7651 17.8309 16.3415Z" fill="white"/>
<path fill-rule="evenodd" clip-rule="evenodd" d="M22.7832 15.1139C23.5316 10.6817 22.2548 6.11322 20.4496 2.08303C20.2119 1.55725 19.5842 1.3174 19.0486 1.54719C18.5095 1.77733 18.2648 2.39115 18.4989 2.91694C20.1445 6.58737 21.3646 10.7385 20.6836 14.7753C20.5879 15.3417 20.9816 15.8772 21.5597 15.9704C22.1378 16.064 22.6875 15.6799 22.7832 15.1139Z" fill="white"/>
</g>
<defs>
<clipPath id="clip0_121_53">
<rect width="23" height="24" fill="white" transform="translate(0 0.959961)"/>
</clipPath>
</defs>
</svg>
