<svg width="30" height="31" viewBox="0 0 30 31" fill="none" xmlns="http://www.w3.org/2000/svg">
<path d="M9.75 3.45996H20.25C24.25 3.45996 27.5 6.70996 27.5 10.71V21.21C27.5 23.1328 26.7362 24.9768 25.3765 26.3365C24.0169 27.6961 22.1728 28.46 20.25 28.46H9.75C5.75 28.46 2.5 25.21 2.5 21.21V10.71C2.5 8.78714 3.26384 6.94308 4.62348 5.58344C5.98311 4.2238 7.82718 3.45996 9.75 3.45996ZM9.5 5.95996C8.30653 5.95996 7.16193 6.43407 6.31802 7.27798C5.47411 8.12189 5 9.26649 5 10.46V21.46C5 23.9475 7.0125 25.96 9.5 25.96H20.5C21.6935 25.96 22.8381 25.4859 23.682 24.6419C24.5259 23.798 25 22.6534 25 21.46V10.46C25 7.97246 22.9875 5.95996 20.5 5.95996H9.5ZM21.5625 7.83496C21.9769 7.83496 22.3743 7.99958 22.6674 8.29261C22.9604 8.58563 23.125 8.98306 23.125 9.39746C23.125 9.81186 22.9604 10.2093 22.6674 10.5023C22.3743 10.7953 21.9769 10.96 21.5625 10.96C21.1481 10.96 20.7507 10.7953 20.4576 10.5023C20.1646 10.2093 20 9.81186 20 9.39746C20 8.98306 20.1646 8.58563 20.4576 8.29261C20.7507 7.99958 21.1481 7.83496 21.5625 7.83496ZM15 9.70996C16.6576 9.70996 18.2473 10.3684 19.4194 11.5405C20.5915 12.7126 21.25 14.3024 21.25 15.96C21.25 17.6176 20.5915 19.2073 19.4194 20.3794C18.2473 21.5515 16.6576 22.21 15 22.21C13.3424 22.21 11.7527 21.5515 10.5806 20.3794C9.40848 19.2073 8.75 17.6176 8.75 15.96C8.75 14.3024 9.40848 12.7126 10.5806 11.5405C11.7527 10.3684 13.3424 9.70996 15 9.70996ZM15 12.21C14.0054 12.21 13.0516 12.605 12.3483 13.3083C11.6451 14.0116 11.25 14.9654 11.25 15.96C11.25 16.9545 11.6451 17.9083 12.3483 18.6116C13.0516 19.3149 14.0054 19.71 15 19.71C15.9946 19.71 16.9484 19.3149 17.6517 18.6116C18.3549 17.9083 18.75 16.9545 18.75 15.96C18.75 14.9654 18.3549 14.0116 17.6517 13.3083C16.9484 12.605 15.9946 12.21 15 12.21Z" fill="white"/>
</svg>
