<svg width="50" height="51" viewBox="0 0 50 51" fill="none" xmlns="http://www.w3.org/2000/svg">
<path d="M11.25 5.95996C10.2554 5.95996 9.30161 6.35505 8.59835 7.05831C7.89509 7.76157 7.5 8.7154 7.5 9.70996V42.21C7.5 43.2045 7.89509 44.1583 8.59835 44.8616C9.30161 45.5649 10.2554 45.96 11.25 45.96H28.75C29.7446 45.96 30.6984 45.5649 31.4017 44.8616C32.1049 44.1583 32.5 43.2045 32.5 42.21V38.46C32.5 38.1284 32.3683 37.8105 32.1339 37.5761C31.8995 37.3417 31.5815 37.21 31.25 37.21C30.2175 37.21 29.5575 36.955 29.11 36.62C28.6525 36.2775 28.305 35.765 28.05 35.0625C27.515 33.5925 27.5 31.645 27.5 29.71C27.5 29.5455 27.4675 29.3827 27.4044 29.2308C27.3414 29.079 27.249 28.9411 27.1325 28.825L26.4175 28.1075L23.385 25.075C22.2175 23.9075 21.875 23.125 21.81 22.6875C21.76 22.3375 21.865 22.1025 22.115 21.8625C22.65 21.35 23.0325 21.0025 23.465 20.8975C23.7225 20.8325 24.31 20.7875 25.365 21.8425L32.865 29.3425C33.0994 29.5772 33.4174 29.7092 33.7491 29.7094C33.9134 29.7095 34.076 29.6773 34.2278 29.6145C34.3796 29.5518 34.5175 29.4598 34.6338 29.3437C34.75 29.2277 34.8422 29.0898 34.9052 28.9381C34.9681 28.7865 35.0006 28.6238 35.0007 28.4596C35.0008 28.2954 34.9686 28.1327 34.9058 27.9809C34.8431 27.8291 34.7511 27.6912 34.635 27.575L32.5 25.4425V17.7275L38.9 24.1275C39.2486 24.4756 39.5252 24.8891 39.7139 25.3442C39.9027 25.7994 39.9999 26.2872 40 26.78V44.71C40 45.0415 40.1317 45.3594 40.3661 45.5938C40.6005 45.8283 40.9185 45.96 41.25 45.96C41.5815 45.96 41.8995 45.8283 42.1339 45.5938C42.3683 45.3594 42.5 45.0415 42.5 44.71V26.78C42.4996 25.1231 41.8414 23.5342 40.67 22.3625L32.5 14.1925V9.70996C32.5 8.7154 32.1049 7.76157 31.4017 7.05831C30.6984 6.35505 29.7446 5.95996 28.75 5.95996H11.25ZM30 14.71V22.9425L27.135 20.075C25.69 18.63 24.25 18.1325 22.8725 18.4675C22.6019 18.5342 22.3395 18.6307 22.09 18.755C20.9725 18.4312 19.795 18.3719 18.6506 18.5815C17.5062 18.7912 16.4262 19.2641 15.496 19.963C14.5658 20.6618 13.8109 21.5674 13.2909 22.6082C12.771 23.649 12.5002 24.7965 12.5 25.96C12.4999 27.4098 12.92 28.8286 13.7096 30.0447C14.4991 31.2607 15.6242 32.2218 16.9486 32.8117C18.2731 33.4016 19.7401 33.5949 21.1722 33.3683C22.6042 33.1417 23.9399 32.5049 25.0175 31.535C25.06 32.98 25.205 34.56 25.7 35.9175C26.07 36.935 26.66 37.9075 27.61 38.6175L27.625 38.6325C26.8637 38.8719 26.1987 39.3479 25.7266 39.9913C25.2545 40.6347 25 41.4119 25 42.21V43.46H15V42.21C15 41.2154 14.6049 40.2616 13.9017 39.5583C13.1984 38.855 12.2446 38.46 11.25 38.46H10V13.46H11.25C12.2446 13.46 13.1984 13.0649 13.9017 12.3616C14.6049 11.6584 15 10.7045 15 9.70996V8.45996H25V9.70996C25 10.7045 25.3951 11.6584 26.0983 12.3616C26.8016 13.0649 27.7554 13.46 28.75 13.46H30V14.71ZM30 42.21V42.2325C29.9941 42.5601 29.8598 42.8723 29.626 43.1018C29.3922 43.3314 29.0777 43.46 28.75 43.46H27.5V42.21C27.5 41.8784 27.6317 41.5605 27.8661 41.3261C28.1005 41.0917 28.4185 40.96 28.75 40.96H30V42.21ZM15 25.96C15 24.6884 15.4845 23.4646 16.3548 22.5377C17.2252 21.6107 18.416 21.0501 19.685 20.97C19.375 21.545 19.2175 22.245 19.3375 23.0525C19.515 24.2575 20.2825 25.51 21.615 26.8425L23.8825 29.11C23.2316 29.9121 22.3481 30.493 21.3536 30.7727C20.3592 31.0523 19.3025 31.0171 18.3288 30.6718C17.3552 30.3265 16.5124 29.6882 15.9163 28.8444C15.3202 28.0007 15.0001 26.993 15 25.96ZM12.5 8.45996V9.70996C12.5 10.0415 12.3683 10.3594 12.1339 10.5938C11.8995 10.8283 11.5815 10.96 11.25 10.96H10V9.70996C10 9.37844 10.1317 9.0605 10.3661 8.82608C10.6005 8.59166 10.9185 8.45996 11.25 8.45996H12.5ZM10 40.96H11.25C11.5815 40.96 11.8995 41.0917 12.1339 41.3261C12.3683 41.5605 12.5 41.8784 12.5 42.21V43.46H11.25C10.9185 43.46 10.6005 43.3283 10.3661 43.0938C10.1317 42.8594 10 42.5415 10 42.21V40.96ZM30 10.96H28.75C28.4185 10.96 28.1005 10.8283 27.8661 10.5938C27.6317 10.3594 27.5 10.0415 27.5 9.70996V8.45996H28.75C29.0815 8.45996 29.3995 8.59166 29.6339 8.82608C29.8683 9.0605 30 9.37844 30 9.70996V10.96Z" fill="#7D7D7D"/>
</svg>
