<svg width="40" height="41" viewBox="0 0 40 41" fill="none" xmlns="http://www.w3.org/2000/svg">
<path d="M31.7498 9.14307C30.2218 7.59961 28.4018 6.37585 26.3959 5.54315C24.39 4.71046 22.2384 4.2855 20.0665 4.29307C10.9665 4.29307 3.54984 11.7097 3.54984 20.8097C3.54984 23.7264 4.3165 26.5597 5.74984 29.0597L3.4165 37.6264L12.1665 35.3264C14.5832 36.6431 17.2998 37.3431 20.0665 37.3431C29.1665 37.3431 36.5832 29.9264 36.5832 20.8264C36.5832 16.4097 34.8665 12.2597 31.7498 9.14307ZM20.0665 34.5431C17.5998 34.5431 15.1832 33.8764 13.0665 32.6264L12.5665 32.3264L7.3665 33.6931L8.74984 28.6264L8.4165 28.1097C7.04608 25.9213 6.3184 23.3918 6.3165 20.8097C6.3165 13.2431 12.4832 7.0764 20.0498 7.0764C23.7165 7.0764 27.1665 8.50974 29.7498 11.1097C31.029 12.383 32.0427 13.8975 32.7322 15.5654C33.4216 17.2334 33.7732 19.0216 33.7665 20.8264C33.7998 28.3931 27.6332 34.5431 20.0665 34.5431ZM27.5998 24.2764C27.1832 24.0764 25.1498 23.0764 24.7832 22.9264C24.3998 22.7931 24.1332 22.7264 23.8498 23.1264C23.5665 23.5431 22.7832 24.4764 22.5498 24.7431C22.3165 25.0264 22.0665 25.0597 21.6498 24.8431C21.2332 24.6431 19.8998 24.1931 18.3332 22.7931C17.0998 21.6931 16.2832 20.3431 16.0332 19.9264C15.7998 19.5097 15.9998 19.2931 16.2165 19.0764C16.3998 18.8931 16.6332 18.5931 16.8332 18.3597C17.0332 18.1264 17.1165 17.9431 17.2498 17.6764C17.3832 17.3931 17.3165 17.1597 17.2165 16.9597C17.1165 16.7597 16.2832 14.7264 15.9498 13.8931C15.6165 13.0931 15.2665 13.1931 15.0165 13.1764H14.2165C13.9332 13.1764 13.4998 13.2764 13.1165 13.6931C12.7498 14.1097 11.6832 15.1097 11.6832 17.1431C11.6832 19.1764 13.1665 21.1431 13.3665 21.4097C13.5665 21.6931 16.2832 25.8597 20.4165 27.6431C21.3998 28.0764 22.1665 28.3264 22.7665 28.5097C23.7498 28.8264 24.6498 28.7764 25.3665 28.6764C26.1665 28.5597 27.8165 27.6764 28.1498 26.7097C28.4998 25.7431 28.4998 24.9264 28.3832 24.7431C28.2665 24.5597 28.0165 24.4764 27.5998 24.2764Z" fill="#7D7D7D"/>
</svg>
