<svg width="80" height="81" viewBox="0 0 80 81" fill="none" xmlns="http://www.w3.org/2000/svg">
<path d="M63.4999 17.3267C60.4439 14.2397 56.8039 11.7922 52.792 10.1268C48.7802 8.46144 44.477 7.61153 40.1333 7.62666C21.9333 7.62666 7.09992 22.46 7.09992 40.66C7.09992 46.4933 8.63325 52.16 11.4999 57.16L6.83325 74.2933L24.3333 69.6933C29.1666 72.3267 34.5999 73.7267 40.1333 73.7267C58.3333 73.7267 73.1666 58.8933 73.1666 40.6933C73.1666 31.86 69.7332 23.56 63.4999 17.3267ZM40.1333 68.1267C35.1999 68.1267 30.3666 66.7933 26.1333 64.2933L25.1333 63.6933L14.7333 66.4267L17.4999 56.2933L16.8333 55.26C14.0924 50.8832 12.6371 45.8241 12.6333 40.66C12.6333 25.5267 24.9666 13.1933 40.0999 13.1933C47.4333 13.1933 54.3333 16.06 59.4999 21.26C62.0582 23.8065 64.0856 26.8355 65.4646 30.1714C66.8435 33.5073 67.5467 37.0837 67.5333 40.6933C67.5999 55.8267 55.2666 68.1267 40.1333 68.1267ZM55.1999 47.5933C54.3666 47.1933 50.2999 45.1933 49.5666 44.8933C48.7999 44.6267 48.2666 44.4933 47.6999 45.2933C47.1333 46.1267 45.5666 47.9933 45.0999 48.5267C44.6333 49.0933 44.1333 49.16 43.2999 48.7267C42.4666 48.3267 39.7999 47.4267 36.6666 44.6267C34.1999 42.4267 32.5666 39.7267 32.0666 38.8933C31.5999 38.06 31.9999 37.6267 32.4332 37.1933C32.7999 36.8267 33.2666 36.2267 33.6666 35.76C34.0666 35.2933 34.2333 34.9267 34.4999 34.3933C34.7666 33.8267 34.6333 33.36 34.4333 32.96C34.2332 32.56 32.5666 28.4933 31.8999 26.8267C31.2332 25.2267 30.5333 25.4267 30.0333 25.3933H28.4333C27.8666 25.3933 26.9999 25.5933 26.2332 26.4267C25.4999 27.26 23.3666 29.26 23.3666 33.3267C23.3666 37.3933 26.3333 41.3267 26.7333 41.86C27.1333 42.4267 32.5666 50.76 40.8333 54.3267C42.7999 55.1933 44.3332 55.6933 45.5332 56.06C47.4999 56.6933 49.2999 56.5933 50.7332 56.3933C52.3333 56.16 55.6332 54.3933 56.2999 52.46C56.9999 50.5267 56.9999 48.8933 56.7666 48.5267C56.5333 48.16 56.0332 47.9933 55.1999 47.5933Z" fill="black"/>
</svg>
