<svg width="50" height="51" viewBox="0 0 50 51" fill="none" xmlns="http://www.w3.org/2000/svg">
<g clip-path="url(#clip0_116_147)">
<path d="M33.2106 38.3428C33.6897 34.4283 31.1689 31.9324 24.5127 29.8074C21.2877 28.7074 19.7689 27.2658 19.8043 25.2845C19.9397 23.0845 21.9877 21.4824 24.7043 21.4303C26.844 21.4522 28.9309 22.0965 30.7106 23.2845C30.9522 23.4345 31.121 23.4095 31.2585 23.2012C31.446 22.9012 31.9147 22.1741 32.071 21.9095C32.1772 21.7428 32.1981 21.522 31.9293 21.3262C31.5439 21.0408 30.4627 20.4616 29.8814 20.2178C28.2265 19.5156 26.4479 19.1515 24.6502 19.147C20.671 19.1637 17.5397 21.6783 17.2752 25.0345C17.1064 27.4574 18.3064 29.4241 20.8793 30.9241C21.4272 31.2408 24.3793 32.4158 25.5543 32.7824C29.2502 33.9324 31.1689 35.9949 30.7168 38.4012C30.3064 40.5824 28.0106 41.9928 24.846 42.0345C22.3397 41.9387 20.0814 40.9158 18.3314 39.5553L18.0377 39.3262C17.821 39.1595 17.5835 39.1699 17.4397 39.3887C17.3356 39.5491 16.6564 40.5283 16.4856 40.7845C16.3252 41.0095 16.4127 41.1345 16.5793 41.272C17.3085 41.8824 18.2814 42.5491 18.9418 42.8866C20.7714 43.8181 22.7836 44.3352 24.8356 44.4012C26.3129 44.4711 27.7879 44.2194 29.1585 43.6637C31.4397 42.6949 32.9147 40.7595 33.2106 38.3428ZM25.0002 3.83867C20.6918 3.83867 17.1793 7.90117 17.0147 12.9845H32.9835C32.8147 7.89909 29.3043 3.83659 25.0002 3.83659M41.3564 50.9158L41.1897 50.9178L8.30641 50.9137C6.06891 50.8303 4.42516 49.0178 4.20016 46.7658L4.17932 46.3595L2.70641 14.0137C2.69645 13.8837 2.71318 13.753 2.75558 13.6297C2.79797 13.5064 2.86514 13.3931 2.95294 13.2967C3.04075 13.2003 3.14734 13.1229 3.26616 13.0692C3.38499 13.0155 3.51354 12.9867 3.64391 12.9845H14.0085C14.2606 6.26992 19.0835 0.919922 25.0002 0.919922C30.9127 0.919922 35.7356 6.27201 35.9897 12.9824H46.3397C46.4695 12.9825 46.5978 13.009 46.717 13.0603C46.8361 13.1116 46.9436 13.1866 47.0329 13.2807C47.1221 13.3748 47.1913 13.4861 47.2362 13.6078C47.281 13.7296 47.3007 13.8591 47.2939 13.9887L45.6835 46.4637L45.6689 46.7366C45.4731 49.0158 43.6293 50.8553 41.3564 50.9158Z" fill="#EE4D2D"/>
</g>
<defs>
<clipPath id="clip0_116_147">
<rect width="50" height="50" fill="white" transform="translate(0 0.919922)"/>
</clipPath>
</defs>
</svg>
