<svg width="1440" height="903" viewBox="0 0 1440 903" fill="none" xmlns="http://www.w3.org/2000/svg">
<g clip-path="url(#clip0_172_34)">
<g opacity="0.2" filter="url(#filter0_f_172_34)">
<path d="M299.906 140.755C299.906 42.0312 216.204 -38.0002 112.953 -38.0002C9.70176 -38.0002 -74 42.0312 -74 140.755C-74 239.479 9.70176 319.51 112.953 319.51C216.204 319.51 299.906 239.479 299.906 140.755Z" fill="url(#paint0_linear_172_34)"/>
<path d="M1503.28 801.586C1503.28 704.612 1421.06 626 1319.64 626C1218.22 626 1136 704.612 1136 801.586C1136 898.559 1218.22 977.171 1319.64 977.171C1421.06 977.171 1503.28 898.559 1503.28 801.586Z" fill="url(#paint1_linear_172_34)"/>
</g>
</g>
<defs>
<filter id="filter0_f_172_34" x="-200.594" y="-164.594" width="1830.46" height="1268.36" filterUnits="userSpaceOnUse" color-interpolation-filters="sRGB">
<feFlood flood-opacity="0" result="BackgroundImageFix"/>
<feBlend mode="normal" in="SourceGraphic" in2="BackgroundImageFix" result="shape"/>
<feGaussianBlur stdDeviation="63.2972" result="effect1_foregroundBlur_172_34"/>
</filter>
<linearGradient id="paint0_linear_172_34" x1="-40.6264" y1="140.755" x2="299.906" y2="140.755" gradientUnits="userSpaceOnUse">
<stop stop-color="#CA2D0E"/>
<stop offset="1" stop-color="#B7D4FF"/>
</linearGradient>
<linearGradient id="paint1_linear_172_34" x1="1168.78" y1="801.586" x2="1503.28" y2="801.586" gradientUnits="userSpaceOnUse">
<stop stop-color="#007475"/>
<stop offset="1" stop-color="#B7D4FF"/>
</linearGradient>
<clipPath id="clip0_172_34">
<rect width="1440" height="903" fill="white"/>
</clipPath>
</defs>
</svg>
