<svg width="294" height="294" viewBox="0 0 294 294" fill="none" xmlns="http://www.w3.org/2000/svg">
<circle cx="147" cy="147" r="145.5" fill="#F7F1EB" stroke="#CA2D0E" stroke-width="3"/>
<path d="M113.2 140.4L115 183.8C115 186.467 114.067 188.867 112.2 191C110.467 193.133 108.2 194.2 105.4 194.2C102.6 194.2 100.267 193.133 98.4 191C96.6667 188.867 95.8 186.733 95.8 184.6C95.8 182.467 96.0667 175.067 96.6 162.4C97.2667 149.733 97.6 137.467 97.6 125.6C97.6 113.733 97.4667 104 97.2 96.4C96.9333 88.6667 96.6 82.4667 96.2 77.8C95.9333 73.1333 95.8 70.1333 95.8 68.8H92.2C90.0667 68.8 88.1333 68.1333 86.4 66.8C84.8 65.3333 84 63.5333 84 61.4C84 59.1333 84.8 57.3333 86.4 56C88.1333 54.5333 89.8 53.8 91.4 53.8C93.1333 53.8 95.4 54 98.2 54.4C101.133 54.8 104 55 106.8 55L136.4 53.8C144.4 53.8 152.4 56.6 160.4 62.2C164.533 65.1333 167.867 69.3333 170.4 74.8C172.933 80.2667 174.2 86.6 174.2 93.8C174.2 105.4 171.133 115.067 165 122.8C159 130.4 151.733 136 143.2 139.6C150 142.933 156.8 148.667 163.6 156.8C170.533 164.8 177.8 174.467 185.4 185.8C193.133 197.133 199.067 205.267 203.2 210.2C207.333 215.133 212 219.6 217.2 223.6C222.4 227.733 226.067 230.8 228.2 232.8C230.333 234.933 231.4 237.467 231.4 240.4C231.4 243.333 230.267 245.8 228 247.8C225.733 249.933 222.733 251 219 251C213.933 251 208.333 247.2 202.2 239.6C196.2 232 190.067 222.8 183.8 212C177.533 201.2 170.933 190.4 164 179.6C157.2 168.667 149.333 159.4 140.4 151.8C131.467 144.2 122.4 140.4 113.2 140.4ZM126.6 67.6L115 67.8C115 69.2667 114.8 72.3333 114.4 77C113.6 89.1333 113.2 104.6 113.2 123.4V128.8C119.867 130.667 124.533 131.6 127.2 131.6C130 131.6 132.6 131.4 135 131C137.4 130.467 140.133 129.533 143.2 128.2C146.267 126.733 149 124.933 151.4 122.8C153.8 120.667 155.8 117.733 157.4 114C159.133 110.267 160 106 160 101.2C160 89.7333 156.733 81.2667 150.2 75.8C143.8 70.3333 135.933 67.6 126.6 67.6Z" fill="#CA2D0E"/>
</svg>
