<svg width="558" height="152" viewBox="0 0 558 152" fill="none" xmlns="http://www.w3.org/2000/svg">
<path d="M447.92 56.16C450.32 56.16 452.2 56.84 453.56 58.2C454.92 59.5333 455.6 61.52 455.6 64.16C455.6 66.7733 454.653 69.1733 452.76 71.36C450.867 73.5467 448.48 74.64 445.6 74.64C443.947 74.64 442.88 74.4267 442.4 74C442.053 73.6533 441.88 73.24 441.88 72.76C441.88 72.2533 442.04 71.8667 442.36 71.6C442.68 71.3067 443.04 71.16 443.44 71.16C443.867 71.16 444.427 71.2933 445.12 71.56C445.84 71.8267 446.547 71.96 447.24 71.96C448.733 71.96 450.027 71.36 451.12 70.16C452.24 68.9333 452.8 67.4267 452.8 65.64C452.8 63.8267 452.2 62.2533 451 60.92C449.827 59.5867 448.293 58.92 446.4 58.92C444.507 58.92 442.747 59.4267 441.12 60.44C440.8 68.6 440.64 79.1733 440.64 92.16C440.64 94.48 439.907 95.64 438.44 95.64C437.88 95.64 437.373 95.4267 436.92 95C436.493 94.5733 436.28 94.0267 436.28 93.36C436.28 92.72 436.56 92 437.12 91.2C437.707 90.4 438 89.56 438 88.68C438 80.0667 437.96 74.4267 437.88 71.76C437.747 67.3067 437.68 64.5067 437.68 63.36C436.933 64.24 436.333 65.1467 435.88 66.08C435.427 67.0133 434.933 67.48 434.4 67.48C433.68 67.48 433.32 67.1067 433.32 66.36C433.32 65.6133 433.733 64.6933 434.56 63.6C435.387 62.48 436.44 61.3733 437.72 60.28C439.027 59.16 440.6 58.2 442.44 57.4C444.307 56.5733 446.133 56.16 447.92 56.16ZM471.85 78.64C472.037 79.12 472.424 79.7733 473.01 80.6C473.624 81.4 473.93 82.0533 473.93 82.56C473.93 83.0667 473.797 83.48 473.53 83.8C473.264 84.0933 472.904 84.24 472.45 84.24C471.357 84.24 470.384 83.1067 469.53 80.84L469.21 79.96C467.85 82.8133 465.81 84.24 463.09 84.24C461.73 84.24 460.597 83.8133 459.69 82.96C458.81 82.08 458.37 80.9867 458.37 79.68C458.37 77.6533 459.064 75.9067 460.45 74.44C461.837 72.9733 463.65 72.1867 465.89 72.08C465.357 71.1467 464.757 70.4533 464.09 70C463.45 69.52 462.864 69.24 462.33 69.16C461.797 69.08 461.29 69.04 460.81 69.04C460.357 69.0133 459.997 68.9067 459.73 68.72C459.464 68.5333 459.33 68.1733 459.33 67.64C459.33 67.08 459.544 66.6267 459.97 66.28C460.424 65.9333 460.957 65.76 461.57 65.76C463.304 65.76 465.01 66.6267 466.69 68.36C468.37 70.0933 469.837 72.8133 471.09 76.52L471.85 78.64ZM464.89 74.2C463.93 74.2 463.064 74.52 462.29 75.16C461.544 75.8 461.17 76.6267 461.17 77.64C461.17 78.6533 461.504 79.5067 462.17 80.2C462.864 80.8667 463.69 81.2 464.65 81.2C465.61 81.2 466.437 80.8667 467.13 80.2C467.824 79.5067 468.17 78.6933 468.17 77.76C468.17 77.0933 468.05 76.48 467.81 75.92C467.57 75.3333 467.424 74.9733 467.37 74.84C466.677 74.4133 465.85 74.2 464.89 74.2ZM481.89 84.24C480.21 84.24 478.796 83.5733 477.65 82.24C476.503 80.9067 475.93 79.3733 475.93 77.64C475.93 75.88 476.276 74.24 476.97 72.72C477.663 71.2 478.543 69.9467 479.61 68.96C480.676 67.9733 481.823 67.2 483.05 66.64C484.303 66.0533 485.583 65.76 486.89 65.76C488.223 65.76 489.45 66.2533 490.57 67.24C490.543 65.24 490.45 63.0533 490.29 60.68C490.13 58.28 490.05 56.7733 490.05 56.16C490.05 55.5467 490.21 55.04 490.53 54.64C490.85 54.2133 491.263 54 491.77 54C492.276 54 492.703 54.2267 493.05 54.68C493.423 55.1067 493.61 55.6933 493.61 56.44C493.61 57.16 493.49 58.8667 493.25 61.56C493.036 64.2267 492.93 66.7333 492.93 69.08C492.93 71.4267 493.023 73.4667 493.21 75.2C493.396 76.9067 493.596 78.0667 493.81 78.68C494.423 80.3067 494.73 81.4 494.73 81.96C494.73 83.48 494.143 84.24 492.97 84.24C491.556 84.24 490.73 82.7333 490.49 79.72C489.423 81.1333 488.143 82.24 486.65 83.04C485.156 83.84 483.57 84.24 481.89 84.24ZM480.33 70.68C479.156 71.8533 478.57 73.2933 478.57 75C478.57 76.7067 479.156 78.16 480.33 79.36C481.53 80.5333 482.97 81.12 484.65 81.12C486.356 81.12 487.783 80.5333 488.93 79.36C490.076 78.16 490.65 76.6533 490.65 74.84C490.65 73.0267 490.13 71.5867 489.09 70.52C488.05 69.4533 486.623 68.92 484.81 68.92C483.023 68.92 481.53 69.5067 480.33 70.68ZM512.007 78.64C512.193 79.12 512.58 79.7733 513.167 80.6C513.78 81.4 514.087 82.0533 514.087 82.56C514.087 83.0667 513.953 83.48 513.687 83.8C513.42 84.0933 513.06 84.24 512.607 84.24C511.513 84.24 510.54 83.1067 509.687 80.84L509.367 79.96C508.007 82.8133 505.967 84.24 503.247 84.24C501.887 84.24 500.753 83.8133 499.847 82.96C498.967 82.08 498.527 80.9867 498.527 79.68C498.527 77.6533 499.22 75.9067 500.607 74.44C501.993 72.9733 503.807 72.1867 506.047 72.08C505.513 71.1467 504.913 70.4533 504.247 70C503.607 69.52 503.02 69.24 502.487 69.16C501.953 69.08 501.447 69.04 500.967 69.04C500.513 69.0133 500.153 68.9067 499.887 68.72C499.62 68.5333 499.487 68.1733 499.487 67.64C499.487 67.08 499.7 66.6267 500.127 66.28C500.58 65.9333 501.113 65.76 501.727 65.76C503.46 65.76 505.167 66.6267 506.847 68.36C508.527 70.0933 509.993 72.8133 511.247 76.52L512.007 78.64ZM505.047 74.2C504.087 74.2 503.22 74.52 502.447 75.16C501.7 75.8 501.327 76.6267 501.327 77.64C501.327 78.6533 501.66 79.5067 502.327 80.2C503.02 80.8667 503.847 81.2 504.807 81.2C505.767 81.2 506.593 80.8667 507.287 80.2C507.98 79.5067 508.327 78.6933 508.327 77.76C508.327 77.0933 508.207 76.48 507.967 75.92C507.727 75.3333 507.58 74.9733 507.527 74.84C506.833 74.4133 506.007 74.2 505.047 74.2ZM520.806 72.56L521.046 82.32C521.046 82.88 520.886 83.3467 520.566 83.72C520.246 84.0667 519.833 84.24 519.326 84.24C518.819 84.24 518.379 84.0667 518.006 83.72C517.659 83.3467 517.486 82.88 517.486 82.32L517.766 74.4C517.766 74.4 517.673 72.1733 517.486 67.72C517.486 67.16 517.659 66.6933 518.006 66.32C518.379 65.9467 518.819 65.76 519.326 65.76C519.833 65.76 520.246 65.9467 520.566 66.32C520.886 66.6667 521.046 67.1067 521.046 67.64C521.046 68.1733 521.033 68.5733 521.006 68.84C522.499 66.7867 524.219 65.76 526.166 65.76C528.966 65.76 530.766 67.64 531.566 71.4L533.086 78.28C533.246 78.8933 533.566 79.56 534.046 80.28C534.553 80.9733 534.806 81.6 534.806 82.16C534.806 83.5467 534.139 84.24 532.806 84.24C531.473 84.24 530.606 83.1867 530.206 81.08L528.686 72.72C528.179 70.0533 526.806 68.72 524.566 68.72C523.419 68.72 522.526 69.1067 521.886 69.88C521.246 70.6533 520.886 71.5467 520.806 72.56ZM545.979 68.92C544.272 68.92 542.819 69.5067 541.619 70.68C540.445 71.8533 539.859 73.2933 539.859 75C539.859 76.7067 540.445 78.16 541.619 79.36C542.819 80.5333 544.245 81.12 545.899 81.12C547.552 81.12 548.925 80.6 550.019 79.56C551.139 78.4933 551.765 77.1733 551.899 75.6C551.872 74.8267 551.859 73.9467 551.859 72.96C551.859 71.9733 552.032 71.2667 552.379 70.84C552.752 70.3867 553.192 70.16 553.699 70.16C554.205 70.16 554.619 70.3733 554.939 70.8C555.259 71.2 555.419 71.6933 555.419 72.28C555.419 72.8667 555.392 73.4533 555.339 74.04C555.312 74.6 555.259 75.3333 555.179 76.24C554.912 79.2 554.779 81.9733 554.779 84.56C554.779 87.1467 553.632 89.6267 551.339 92C549.045 94.4 546.485 95.6 543.659 95.6C542.245 95.6 541.019 95.2 539.979 94.4C538.939 93.6 538.419 92.7333 538.419 91.8C538.419 91.32 538.579 90.8933 538.899 90.52C539.245 90.1467 539.645 89.96 540.099 89.96C540.579 89.96 541.005 90.0933 541.379 90.36C541.779 90.6267 542.139 90.92 542.459 91.24C542.805 91.56 543.312 91.8533 543.979 92.12C544.672 92.3867 545.445 92.52 546.299 92.52C547.979 92.52 549.379 91.8933 550.499 90.64C551.619 89.4133 552.179 87.9467 552.179 86.24C552.179 86.0267 552.139 83.8 552.059 79.56C550.912 81 549.539 82.1467 547.939 83C546.365 83.8267 544.872 84.24 543.459 84.24C541.592 84.24 540.085 83.5733 538.939 82.24C537.792 80.9067 537.219 79.24 537.219 77.24C537.219 75.2133 537.845 73.2667 539.099 71.4C540.352 69.5067 541.819 68.0933 543.499 67.16C545.179 66.2267 546.685 65.76 548.019 65.76C549.352 65.76 550.285 65.9733 550.819 66.4C551.379 66.8 551.659 67.2933 551.659 67.88C551.659 68.44 551.472 68.9067 551.099 69.28C550.752 69.6533 550.405 69.84 550.059 69.84C549.739 69.84 549.152 69.6933 548.299 69.4C547.472 69.08 546.699 68.92 545.979 68.92Z" fill="#CA2D0E"/>
<path d="M26.368 80.336L27.52 108.112C27.52 109.819 26.9227 111.355 25.728 112.72C24.6187 114.085 23.168 114.768 21.376 114.768C19.584 114.768 18.0907 114.085 16.896 112.72C15.7867 111.355 15.232 109.989 15.232 108.624C15.232 107.259 15.4027 102.523 15.744 94.416C16.1707 86.3093 16.384 78.4587 16.384 70.864C16.384 63.2693 16.2987 57.04 16.128 52.176C15.9573 47.2267 15.744 43.2587 15.488 40.272C15.3173 37.2853 15.232 35.3653 15.232 34.512H12.928C11.5627 34.512 10.3253 34.0853 9.216 33.232C8.192 32.2933 7.68 31.1413 7.68 29.776C7.68 28.3253 8.192 27.1733 9.216 26.32C10.3253 25.3813 11.392 24.912 12.416 24.912C13.5253 24.912 14.976 25.04 16.768 25.296C18.6453 25.552 20.48 25.68 22.272 25.68L41.216 24.912C46.336 24.912 51.456 26.704 56.576 30.288C59.2213 32.1653 61.3547 34.8533 62.976 38.352C64.5973 41.8507 65.408 45.904 65.408 50.512C65.408 57.936 63.4453 64.1227 59.52 69.072C55.68 73.936 51.0293 77.52 45.568 79.824C49.92 81.9573 54.272 85.6267 58.624 90.832C63.0613 95.952 67.712 102.139 72.576 109.392C77.5253 116.645 81.3227 121.851 83.968 125.008C86.6133 128.165 89.6 131.024 92.928 133.584C96.256 136.229 98.6027 138.192 99.968 139.472C101.333 140.837 102.016 142.459 102.016 144.336C102.016 146.213 101.291 147.792 99.84 149.072C98.3893 150.437 96.4693 151.12 94.08 151.12C90.8373 151.12 87.2533 148.688 83.328 143.824C79.488 138.96 75.5627 133.072 71.552 126.16C67.5413 119.248 63.3173 112.336 58.88 105.424C54.528 98.4267 49.4933 92.496 43.776 87.632C38.0587 82.768 32.256 80.336 26.368 80.336ZM34.944 33.744L27.52 33.872C27.52 34.8107 27.392 36.7733 27.136 39.76C26.624 47.5253 26.368 57.424 26.368 69.456V72.912C30.6347 74.1067 33.6213 74.704 35.328 74.704C37.12 74.704 38.784 74.576 40.32 74.32C41.856 73.9787 43.6053 73.3813 45.568 72.528C47.5307 71.5893 49.28 70.4373 50.816 69.072C52.352 67.7067 53.632 65.8293 54.656 63.44C55.7653 61.0507 56.32 58.32 56.32 55.248C56.32 47.9093 54.2293 42.4907 50.048 38.992C45.952 35.4933 40.9173 33.744 34.944 33.744ZM123.146 96.848C123.743 98.384 124.981 100.475 126.858 103.12C128.821 105.68 129.802 107.771 129.802 109.392C129.802 111.013 129.375 112.336 128.522 113.36C127.669 114.299 126.517 114.768 125.066 114.768C121.567 114.768 118.453 111.141 115.722 103.888L114.698 101.072C110.346 110.203 103.818 114.768 95.114 114.768C90.762 114.768 87.1353 113.403 84.234 110.672C81.418 107.856 80.01 104.357 80.01 100.176C80.01 93.6907 82.2287 88.1013 86.666 83.408C91.1033 78.7147 96.906 76.1973 104.074 75.856C102.367 72.8693 100.447 70.6507 98.314 69.2C96.266 67.664 94.3887 66.768 92.682 66.512C90.9753 66.256 89.354 66.128 87.818 66.128C86.3673 66.0427 85.2153 65.7013 84.362 65.104C83.5087 64.5067 83.082 63.3547 83.082 61.648C83.082 59.856 83.7647 58.4053 85.13 57.296C86.5807 56.1867 88.2873 55.632 90.25 55.632C95.7967 55.632 101.258 58.4053 106.634 63.952C112.01 69.4987 116.703 78.2027 120.714 90.064L123.146 96.848ZM100.874 82.64C97.802 82.64 95.0287 83.664 92.554 85.712C90.1647 87.76 88.97 90.4053 88.97 93.648C88.97 96.8907 90.0367 99.6213 92.17 101.84C94.3887 103.973 97.034 105.04 100.106 105.04C103.178 105.04 105.823 103.973 108.042 101.84C110.261 99.6213 111.37 97.0187 111.37 94.032C111.37 91.8987 110.986 89.936 110.218 88.144C109.45 86.2667 108.981 85.1147 108.81 84.688C106.591 83.3227 103.946 82.64 100.874 82.64ZM155.272 114.768C149.896 114.768 145.373 112.635 141.704 108.368C138.035 104.101 136.2 99.1947 136.2 93.648C136.2 88.016 137.309 82.768 139.528 77.904C141.747 73.04 144.563 69.0293 147.976 65.872C151.389 62.7147 155.059 60.24 158.984 58.448C162.995 56.5707 167.091 55.632 171.272 55.632C175.539 55.632 179.464 57.2107 183.048 60.368C182.963 53.968 182.664 46.9707 182.152 39.376C181.64 31.696 181.384 26.8747 181.384 24.912C181.384 22.9493 181.896 21.328 182.92 20.048C183.944 18.6827 185.267 18 186.888 18C188.509 18 189.875 18.7253 190.984 20.176C192.179 21.5413 192.776 23.4187 192.776 25.808C192.776 28.112 192.392 33.5733 191.624 42.192C190.941 50.7253 190.6 58.7467 190.6 66.256C190.6 73.7653 190.899 80.2933 191.496 85.84C192.093 91.3013 192.733 95.0133 193.416 96.976C195.379 102.181 196.36 105.68 196.36 107.472C196.36 112.336 194.483 114.768 190.728 114.768C186.205 114.768 183.56 109.947 182.792 100.304C179.379 104.827 175.283 108.368 170.504 110.928C165.725 113.488 160.648 114.768 155.272 114.768ZM150.28 71.376C146.525 75.1307 144.648 79.7387 144.648 85.2C144.648 90.6613 146.525 95.312 150.28 99.152C154.12 102.907 158.728 104.784 164.104 104.784C169.565 104.784 174.131 102.907 177.8 99.152C181.469 95.312 183.304 90.4907 183.304 84.688C183.304 78.8853 181.64 74.2773 178.312 70.864C174.984 67.4507 170.419 65.744 164.616 65.744C158.899 65.744 154.12 67.6213 150.28 71.376ZM228.35 114.768C226.814 114.768 225.449 114.128 224.254 112.848C223.145 111.483 222.291 109.861 221.694 107.984C216.403 90.7467 211.753 77.8613 207.742 69.328C206.121 65.6587 205.31 62.9707 205.31 61.264C205.31 59.5573 205.779 58.192 206.718 57.168C207.657 56.144 208.851 55.632 210.302 55.632C212.521 55.632 214.313 57.296 215.678 60.624C217.129 63.952 219.731 70.7787 223.486 81.104C227.326 91.344 229.63 97.7013 230.398 100.176C231.166 102.565 231.678 104.101 231.934 104.784L232.318 106.064C234.707 104.443 237.395 101.072 240.382 95.952C243.454 90.832 245.545 85.7547 246.654 80.72C245.033 76.368 243.454 72.4853 241.918 69.072C240.382 65.5733 239.614 62.9707 239.614 61.264C239.614 59.5573 240.083 58.192 241.022 57.168C241.961 56.144 243.155 55.632 244.606 55.632C246.825 55.632 248.617 57.296 249.982 60.624C251.433 63.952 254.035 70.7787 257.79 81.104C261.63 91.344 263.934 97.7013 264.702 100.176C265.47 102.565 265.982 104.101 266.238 104.784L266.622 106.064C269.694 104.016 272.979 99.5787 276.478 92.752C280.062 85.84 281.854 79.6107 281.854 74.064C281.854 72.1867 281.342 69.968 280.318 67.408C279.294 64.7627 278.782 62.7147 278.782 61.264C278.782 59.8133 279.337 58.5333 280.446 57.424C281.641 56.2293 283.219 55.632 285.182 55.632C287.145 55.632 288.723 56.5707 289.918 58.448C291.198 60.3253 291.838 63.4827 291.838 67.92C291.838 72.3573 290.345 78.3733 287.358 85.968C284.457 93.5627 280.659 100.261 275.966 106.064C271.273 111.867 266.835 114.768 262.654 114.768C259.753 114.768 257.534 112.507 255.998 107.984C255.657 107.045 254.889 104.699 253.694 100.944L250.494 91.6C247.337 98.1707 243.753 103.675 239.742 108.112C235.731 112.549 231.934 114.768 228.35 114.768ZM343.271 96.848C343.868 98.384 345.106 100.475 346.983 103.12C348.946 105.68 349.927 107.771 349.927 109.392C349.927 111.013 349.5 112.336 348.647 113.36C347.794 114.299 346.642 114.768 345.191 114.768C341.692 114.768 338.578 111.141 335.847 103.888L334.823 101.072C330.471 110.203 323.943 114.768 315.239 114.768C310.887 114.768 307.26 113.403 304.359 110.672C301.543 107.856 300.135 104.357 300.135 100.176C300.135 93.6907 302.354 88.1013 306.791 83.408C311.228 78.7147 317.031 76.1973 324.199 75.856C322.492 72.8693 320.572 70.6507 318.439 69.2C316.391 67.664 314.514 66.768 312.807 66.512C311.1 66.256 309.479 66.128 307.943 66.128C306.492 66.0427 305.34 65.7013 304.487 65.104C303.634 64.5067 303.207 63.3547 303.207 61.648C303.207 59.856 303.89 58.4053 305.255 57.296C306.706 56.1867 308.412 55.632 310.375 55.632C315.922 55.632 321.383 58.4053 326.759 63.952C332.135 69.4987 336.828 78.2027 340.839 90.064L343.271 96.848ZM320.999 82.64C317.927 82.64 315.154 83.664 312.679 85.712C310.29 87.76 309.095 90.4053 309.095 93.648C309.095 96.8907 310.162 99.6213 312.295 101.84C314.514 103.973 317.159 105.04 320.231 105.04C323.303 105.04 325.948 103.973 328.167 101.84C330.386 99.6213 331.495 97.0187 331.495 94.032C331.495 91.8987 331.111 89.936 330.343 88.144C329.575 86.2667 329.106 85.1147 328.935 84.688C326.716 83.3227 324.071 82.64 320.999 82.64ZM410.597 95.696C411.109 98.1707 412.218 100.389 413.925 102.352C415.717 104.229 416.613 106.149 416.613 108.112C416.613 110.075 415.93 111.696 414.565 112.976C413.2 114.171 411.706 114.768 410.085 114.768C408.464 114.768 407.141 114.469 406.117 113.872C405.093 113.275 404.24 112.379 403.557 111.184C402.618 109.392 401.893 107.216 401.381 104.656L395.749 77.904C394.896 73.9787 393.53 70.864 391.653 68.56C389.861 66.256 387.045 65.104 383.205 65.104C379.45 65.104 376.506 66.4267 374.373 69.072C372.325 71.632 371.258 74.448 371.173 77.52C371.856 97.744 372.197 108.453 372.197 109.648C372.197 110.757 371.685 111.909 370.661 113.104C369.637 114.213 368.314 114.768 366.693 114.768C365.072 114.768 363.664 114.213 362.469 113.104C361.36 111.909 360.805 109.989 360.805 107.344C360.805 104.699 361.018 98.4267 361.445 88.528C361.872 78.544 362.085 70.8213 362.085 65.36C362.085 59.8987 361.872 52.56 361.445 43.344C361.018 34.128 360.805 28.1973 360.805 25.552C360.805 22.9067 361.36 20.9867 362.469 19.792C363.664 18.5973 365.072 18 366.693 18C368.314 18 369.637 18.5973 370.661 19.792C371.685 20.9013 372.197 22.7787 372.197 25.424C372.197 27.984 371.984 34.0427 371.557 43.6C371.216 53.072 371.045 60.8373 371.045 66.896C376.08 59.3867 381.882 55.632 388.453 55.632C397.413 55.632 403.173 61.648 405.733 73.68L410.597 95.696Z" fill="#CA2D0E"/>
</svg>
